<svg xmlns="http://www.w3.org/2000/svg" width="612" height="597" fill="none" style="color: var(--nav-link-color, currentColor);">
<path stroke="currentColor" stroke-linecap="round" stroke-linejoin="round" stroke-width="var(--icon-stroke-width, 8.5)" d="M224.535 99.778c9.457-27.047 27.871-45.07 47.515-43.475 4.172.34 8.155 1.547 11.89 3.5 9.391 4.944 17.169 14.69 22.408 27.424"/>
<path stroke="currentColor" stroke-linecap="round" stroke-linejoin="round" stroke-width="var(--icon-stroke-width, 8.5)" d="M254.15 94.159c7.155-17.34 17.87-29.952 29.789-34.357 3.681-1.35 7.485-1.925 11.319-1.614 12.651 1.027 23.279 11.48 29.998 27.344"/>
<path fill="#4BFE85" stroke="currentColor" stroke-linecap="round" stroke-linejoin="round" stroke-width="var(--icon-stroke-width, 8.5)" d="M388.842 310.193s-36.946 22.622-66.843 20.823c-5.207-80.129 6.269-178.523 20.033-246.672 0 0 2.312 2.721 19.719 18.043 0 0 6.873 1.204 21.881 3.358-3.742 57.588-.72 148.931 5.21 204.448Z"/>
<path fill="#4BFE85" stroke="currentColor" stroke-linecap="round" stroke-linejoin="round" stroke-width="var(--icon-stroke-width, 8.5)" d="M321.998 331.016s-119.641-1.708-179.758-32.518c2.054-17.55 19.306-114.625 55.329-192.035 0 0 53.691-16.518 144.461-22.12-13.763 68.15-25.239 166.544-20.032 246.673Z"/>
<path fill="currentColor" d="M241.613 165.62c-.113.773-.262 1.56-.411 2.347-3.649 18.763-15.99 32.128-27.522 29.882-11.549-2.247-17.952-19.293-14.287-38.038 3.666-18.761 15.991-32.144 27.539-29.88 4.235.82 7.764 3.623 10.37 7.762l-17.005 26.196 21.316 1.731ZM301.96 163.244c-.114.773-.262 1.56-.411 2.347-3.649 18.763-15.99 32.128-27.522 29.882-11.549-2.247-17.952-19.293-14.287-38.038 3.666-18.762 15.991-32.144 27.538-29.881 4.235.82 7.765 3.623 10.37 7.762l-17.004 26.197 21.316 1.731Z"/>
<g filter="url(#a)"><ellipse cx="186.683" cy="6.667" fill="#2D2D2D" fill-opacity=".34" rx="186.683" ry="6.667" transform="matrix(1 0 0 -1 55.457 540.572)"/></g>
<g filter="url(#b)"><ellipse cx="77.442" cy="4.616" fill="#2D2D2D" fill-opacity=".34" rx="77.442" ry="4.616" transform="matrix(1 0 0 -1 445.946 538.521)"/></g>
<path stroke="currentColor" stroke-linecap="round" stroke-linejoin="round" stroke-width="var(--icon-stroke-width, 19.489)" d="M292.325 387.738c7.839 22.494 32.162 29.46 46.313 41.832"/>
<path fill="#A5E3B9" stroke="currentColor" stroke-linecap="round" stroke-linejoin="round" stroke-width="var(--icon-stroke-width, 7)" d="M336.405 443.771a43.856 43.856 0 0 1-6.714 20.144 33.577 33.577 0 0 0-19.086-8.175c-4.147-6.026-12.993-19.439-2.501-21.537 10.206-2.048 22.812-5.372 25.716-2.149 2.216 2.434 2.938 6.799 2.585 11.717Z"/>
<path fill="#fff" stroke="currentColor" stroke-linecap="round" stroke-linejoin="round" stroke-width="var(--icon-stroke-width, 7)" d="M344.614 490.689c-9.484 8.846-23.35 16.484-44.903 17.659-7.571.42-12.859-2.132-16.216-6.295-11.012-13.781-.52-45.323 20.782-46.481 2.104-.12 4.215-.07 6.311.151a33.574 33.574 0 0 1 19.086 8.108 43.634 43.634 0 0 1 9.871 12.774 57.985 57.985 0 0 1 5.069 14.084Z"/>
<path fill="#A5E3B9" stroke="currentColor" stroke-linecap="round" stroke-linejoin="round" stroke-width="var(--icon-stroke-width, 7)" d="M368.703 453.759c-.269 3.743-3.022 8.091-7.336 14.94-3.727 5.976-8.628 14.403-16.786 21.957a57.975 57.975 0 0 0-5.036-14.017c15.829-8.93 3.474-28.738 20.378-36.04a23.982 23.982 0 0 0 3.055 3.172c4.247 3.794 5.926 6.631 5.725 9.988Z"/>
<path fill="#95BF47" stroke="currentColor" stroke-linecap="round" stroke-linejoin="round" stroke-width="var(--icon-stroke-width, 7)" d="M359.923 440.599c-16.904 7.302-4.549 27.11-20.379 36.04a43.631 43.631 0 0 0-9.87-12.774 43.873 43.873 0 0 0 6.715-20.144c7.335-18.65 17.743-20.412 19.892-16.82 1.947 3.189-1.293 7.42 3.642 13.698Z"/>
<path fill="#fff" stroke="currentColor" stroke-linecap="round" stroke-linejoin="round" stroke-width="var(--icon-stroke-width, 7)" d="M356.348 492.2c-15.108 18.801-31.643 23.753-48.866 25.968-16.786 2.132-23.584-3.961-23.987-16.148 3.357 4.163 8.645 6.714 16.215 6.295 21.554-1.175 35.42-8.813 44.904-17.66 8.125-7.553 13.026-15.98 16.786-21.956 4.314-6.849 7.067-11.197 7.336-14.94 9.467 9.669 3.374 18.901-12.388 38.441Z"/>
<path stroke="currentColor" stroke-linecap="round" stroke-linejoin="round" stroke-width="var(--icon-stroke-width, 19.489)" d="M182.272 396.97c-10.293 26.237-28.494 44.021-33.849 48.209"/>
<path fill="currentColor" fill-opacity=".8" stroke="silver" stroke-width="var(--icon-stroke-width, 11.283)" d="M73.606 179.515h384.648v221.557H73.606z"/>
<g clip-path="url(#c)"><path fill="#364135" d="M169.512 185.67h208.736l11.283 155.911-63.596 12.821-94.367-4.616-94.88-13.334 11.283-79.494 21.541-71.288Z"/>
<path stroke="#78AD84" stroke-linecap="round" stroke-linejoin="round" stroke-width="var(--icon-stroke-width, 6.872)" d="M326.992 180.978c-8.559 47.977-15.353 118.675-3.17 173.937 31.316-.436 67.76-18.2 67.76-18.2-10.857-38.158-9.222-115.646-10.248-155.737"/>
<path stroke="#78AD84" stroke-linecap="round" stroke-linejoin="round" stroke-width="var(--icon-stroke-width, 6.872)" d="M324.91 354.915s-122.63-2.074-187.709-19.08c.654-11.619 12.564-100.074 33.124-154.246"/>
<!-- Resto del SVG continúa con las mismas actualizaciones... -->
</g>
<defs>
<filter id="a" x="51.457" y="527.905" width="378.366" height="19.334" filterUnits="userSpaceOnUse" color-interpolation-filters="sRGB">
<feFlood flood-opacity="0" result="BackgroundImageFix"/>
<feBlend mode="normal" in="SourceGraphic" in2="BackgroundImageFix" result="shape"/>
<feGaussianBlur stdDeviation="2" result="effect1_foregroundBlur_1_2"/>
</filter>
<filter id="b" x="441.946" y="529.289" width="158.884" height="13.848" filterUnits="userSpaceOnUse" color-interpolation-filters="sRGB">
<feFlood flood-opacity="0" result="BackgroundImageFix"/>
<feBlend mode="normal" in="SourceGraphic" in2="BackgroundImageFix" result="shape"/>
<feGaussianBlur stdDeviation="2" result="effect1_foregroundBlur_1_2"/>
</filter>
<clipPath id="c">
<rect width="384.648" height="221.557" x="73.606" y="179.515" fill="#fff"/>
</clipPath>
<clipPath id="d">
<rect width="49.859" height="58.446" x="46.514" y="248.755" fill="#fff"/>
</clipPath>
</defs>
</svg>f" d="M40.994 264.075c-8.31 4.124-23.073-2.698-23.318-16.251-.046-2.575.429-5.381 1.564-8.401 7.266-19.286 24.989-16.404 34.816-3.725-9.873 2.682-18.98 15.085-13.062 28.392v-.015Z"/><path fill="#fff" stroke="#000" stroke-miterlimit="10" stroke-width="1.717" d="M46.513 272.568c-2.115 3.941-4.568 6.869-7.205 8.892-8.57 6.654-18.98 4.094-26.001-1.931-.537-.445-1.028-.935-1.518-1.411-7.957-8.033-9.812-20.589 5.887-30.294.245 13.553 15.009 20.375 23.318 16.251.016.031.016.046.03.092 1.687 3.726 3.558 6.5 5.49 8.401Z"/><path fill="#fff" stroke="#000" stroke-miterlimit="10" stroke-width="1.717" d="M39.998 300.762c-1.886 1.426-4.34 2.514-7.405 3.066-15.883 2.836-27.458-11.544-20.789-25.71.475.475.981.966 1.518 1.411 7.021 6.025 17.431 8.585 26.001 1.931 6.776 2.269 8.432 13.553.69 19.317l-.015-.015Z"/><path stroke="#000" stroke-linecap="round" stroke-linejoin="round" stroke-width="7" d="M80.472 248.851c2.544-9.167 7.374-12.31 11.927-10.747 7.604 2.591 6.684 21.617 2.959 39.002-3.342 15.546-5.136 29.972-16.956 29.972-3.434 0-7.589-5.427-7.344-13.69"/><path stroke="#000" stroke-linecap="round" stroke-linejoin="round" stroke-width="7" d="M85.423 250.416c-1.885-.384-3.526-.905-4.952-1.564-8.646-3.848-10.087-11.498-20.083-13.476-2.04-.399-4.2-.276-6.332.306-9.873 2.683-18.98 15.086-13.062 28.393.016.031.016.046.03.092 1.687 3.726 3.558 6.501 5.49 8.402 6.392 6.377 13.092 3.372 13.46-3.956.506-9.52-2.1-12.31 4.415-15.99"/><path stroke="#000" stroke-linecap="round" stroke-linejoin="round" stroke-width="7" d="M40.994 264.075c-8.31 4.124-23.073-2.698-23.318-16.251-.046-2.575.429-5.381 1.564-8.401 7.266-19.286 24.989-16.404 34.816-3.725"/><path stroke="#000" stroke-linecap="round" stroke-linejoin="round" stroke-width="7" d="M17.676 247.824c-15.699 9.72-13.844 22.261-5.887 30.294.475.476.981.966 1.518 1.411 7.021 6.025 17.43 8.585 26 1.931 2.638-2.023 5.09-4.951 7.206-8.892"/><path stroke="#000" stroke-linecap="round" stroke-linejoin="round" stroke-width="7" d="M39.308 281.46c6.776 2.269 8.432 13.553.69 19.317-1.886 1.426-4.34 2.514-7.405 3.066-15.883 2.837-27.458-11.544-20.789-25.71"/><path stroke="#000" stroke-linecap="round" stroke-linejoin="round" stroke-width="7" d="M39.998 300.762c17.201 2.07 24.882-4.262 31.075-7.374 2.254-1.119 4.293-1.809 6.516-1.533"/></g><g clip-path="url(#e)"><path fill="#364135" stroke="#000" stroke-miterlimit="10" stroke-width="6.872" d="M95.373 277.106c-3.342 15.546-5.136 29.972-16.956 29.972-3.434 0-7.589-5.427-7.343-13.69-6.194 3.112-13.875 9.444-31.076 7.374 7.742-5.765 6.086-17.033-.69-19.317 2.637-2.024 5.09-4.952 7.206-8.892-1.932-1.916-3.803-4.676-5.489-8.401-.015-.031-.015-.046-.03-.092-5.918-13.308 3.204-25.71 13.061-28.393 2.131-.583 4.278-.705 6.332-.307 9.996 1.978 11.437 9.628 20.084 13.476 2.544-9.168 7.374-12.311 11.927-10.747 7.604 2.591 6.684 21.617 2.959 39.002l.015.015Z"/><path stroke="#78AD84" stroke-linecap="round" stroke-linejoin="round" stroke-width="7" d="M80.472 248.851c2.544-9.167 7.374-12.31 11.927-10.747 7.604 2.591 6.684 21.617 2.959 39.002-3.342 15.546-5.136 29.972-16.956 29.972-3.434 0-7.589-5.427-7.344-13.69"/><path stroke="#78AD84" stroke-linecap="round" stroke-linejoin="round" stroke-width="6.872" d="M85.423 250.416c-1.885-.384-3.526-.905-4.952-1.564-8.646-3.848-10.087-11.498-20.083-13.476-2.04-.399-4.2-.276-6.332.306-9.873 2.683-18.98 15.086-13.062 28.393.016.031.016.046.03.092 1.687 3.726 3.558 6.501 5.49 8.402 6.392 6.377 13.092 3.372 13.46-3.956.506-9.52-2.1-12.31 4.415-15.99M39.998 300.762c17.2 2.07 24.882-4.262 31.075-7.374 2.254-1.119 4.293-1.809 6.516-1.533"/></g><defs><clipPath id="c"><path fill="#fff" d="M78.735 185.162h373.75v210.16H78.736z"/></clipPath><clipPath id="d"><path fill="#fff" d="M.78 220.544h77.954v91.29H.78z"/></clipPath><clipPath id="e"><path fill="#fff" d="M102.327 220.544H78.735v91.29h23.592z"/></clipPath><filter id="a" width="393.88" height="33.849" x="45.2" y="516.98" color-interpolation-filters="sRGB" filterUnits="userSpaceOnUse"><feFlood flood-opacity="0" result="BackgroundImageFix"/><feBlend in="SourceGraphic" in2="BackgroundImageFix" result="shape"/><feGaussianBlur result="effect1_foregroundBlur_27_13152" stdDeviation="5.129"/></filter><filter id="b" width="175.4" height="29.746" x="435.689" y="519.032" color-interpolation-filters="sRGB" filterUnits="userSpaceOnUse"><feFlood flood-opacity="0" result="BackgroundImageFix"/><feBlend in="SourceGraphic" in2="BackgroundImageFix" result="shape"/><feGaussianBlur result="effect1_foregroundBlur_27_13152" stdDeviation="5.129"/></filter></defs></svg>